<?xml version="1.0" standalone="no"?>
<!DOCTYPE svg PUBLIC "-//W3C//DTD SVG 20010904//EN"
 "http://www.w3.org/TR/2001/REC-SVG-20010904/DTD/svg10.dtd">
<svg version="1.0" xmlns="http://www.w3.org/2000/svg"
 width="689.000000pt" height="689.000000pt" viewBox="0 0 689.000000 689.000000"
 preserveAspectRatio="xMidYMid meet">
<metadata>
Created by potrace 1.11, written by Peter Selinger 2001-2013
</metadata>
<g transform="translate(0.000000,689.000000) scale(0.100000,-0.100000)"
fill="#000000" stroke="none">
<path d="M341 5110 c-3 -3 -6 -801 -6 -1775 l0 -1770 403 0 402 0 -2 150 -3
150 -217 0 -218 0 -1 30 c-1 38 -1 2884 0 2908 1 16 18 17 221 17 l220 0 0
148 0 147 -396 0 c-218 0 -399 -2 -403 -5z"/>
<path d="M1467 5105 c-2 -5 -3 -658 -2 -1450 l0 -1440 550 -2 c303 -1 568 2
590 7 22 5 56 11 75 13 115 14 293 87 389 159 150 113 248 272 285 463 23 122
17 350 -13 435 -79 225 -244 356 -530 420 -46 10 -88 23 -93 28 -5 5 18 16 60
26 257 62 409 193 485 416 15 42 19 87 21 195 1 155 -3 194 -34 285 -33 97
-76 165 -150 233 -132 123 -308 184 -610 213 -116 11 -1019 11 -1023 -1z
m1043 -319 c19 -4 43 -9 52 -12 10 -3 30 -7 45 -10 16 -3 55 -18 88 -33 152
-70 216 -185 216 -381 -1 -99 -18 -185 -50 -248 -25 -48 -89 -114 -132 -136
-40 -21 -159 -67 -159 -62 0 2 -26 -2 -57 -8 -38 -8 -168 -12 -368 -11 l-310
0 -1 450 c0 248 2 454 4 459 5 9 612 1 672 -8z m-51 -1220 c90 -7 118 -12 191
-32 249 -71 363 -270 326 -570 -30 -248 -186 -392 -466 -431 -67 -9 -662 -8
-668 2 -4 5 -7 240 -7 520 0 485 1 510 18 515 24 7 509 4 606 -4z"/>
<path d="M5684 5111 c-2 -2 -4 -69 -4 -147 l0 -144 222 -2 223 -3 0 -1475 0
-1475 -220 0 -220 0 0 -150 0 -150 390 -1 c215 0 396 2 403 4 9 3 12 367 12
1773 0 973 -3 1770 -7 1770 -22 4 -795 4 -799 0z"/>
<path d="M3693 5085 c-53 -23 -67 -56 -66 -154 1 -81 10 -219 17 -258 2 -10 7
-40 10 -68 49 -348 222 -716 421 -891 l65 -57 -42 -36 c-139 -118 -246 -277
-332 -494 -40 -100 -85 -256 -100 -344 -4 -18 -8 -48 -11 -65 -3 -18 -8 -40
-10 -48 -8 -28 -19 -195 -19 -285 0 -69 4 -96 18 -117 50 -77 187 -53 200 36
3 17 7 76 10 131 3 55 5 100 6 101 0 1 76 2 170 2 141 1 174 4 195 18 30 20
55 63 55 96 0 34 -36 87 -68 99 -15 6 -93 11 -173 11 l-146 0 8 36 c5 21 18
69 29 107 12 39 26 87 32 108 l10 37 342 0 c320 0 343 1 373 20 36 22 60 82
49 124 -8 33 -42 64 -80 74 -17 5 -151 8 -298 7 -179 0 -264 3 -261 10 42 72
148 174 226 216 58 32 68 34 157 34 84 0 102 -3 153 -28 116 -57 237 -199 319
-373 43 -92 101 -263 112 -330 l7 -42 -279 1 c-270 0 -281 -1 -315 -22 -52
-32 -66 -90 -35 -149 26 -51 48 -54 370 -54 l298 0 1 -47 c2 -126 9 -195 24
-217 35 -54 95 -70 152 -41 37 20 58 59 57 111 0 55 -13 265 -19 296 -2 14
-11 67 -20 118 -60 350 -219 675 -415 847 l-57 50 86 85 c255 252 397 640 426
1163 6 105 -8 147 -57 177 -39 24 -69 25 -107 6 -49 -26 -59 -53 -66 -182 -3
-65 -8 -121 -11 -123 -3 -3 -78 -6 -167 -7 -89 -1 -165 -2 -169 -3 -3 0 -20
-13 -37 -27 -57 -47 -50 -137 13 -175 27 -16 52 -19 180 -19 l148 0 -7 -37
c-4 -21 -22 -86 -41 -144 l-34 -106 -341 -1 c-322 0 -343 -1 -368 -19 -34 -26
-51 -59 -51 -101 0 -44 54 -102 96 -103 16 0 145 -1 286 -1 188 0 256 -4 251
-12 -15 -27 -80 -104 -112 -134 -93 -84 -214 -130 -310 -117 -151 20 -310 165
-415 380 -47 97 -97 236 -119 335 l-14 60 277 0 c164 0 289 4 307 10 29 11 61
52 68 91 6 32 -20 85 -51 105 -25 17 -55 18 -325 19 -164 0 -301 3 -305 7 -3
4 -8 54 -11 110 -2 57 -6 113 -8 125 -6 25 -49 73 -68 74 -7 0 -21 2 -32 4
-11 2 -34 -2 -52 -10z"/>
</g>
</svg>
